<svg id="visual" viewBox="0 0 900 600" width="900" height="600" xmlns="http://www.w3.org/2000/svg" xmlns:xlink="http://www.w3.org/1999/xlink" version="1.1"><rect x="0" y="0" width="900" height="600" fill="#056442"></rect><path d="M0 539L15 532C30 525 60 511 90 501.2C120 491.3 150 485.7 180 495.2C210 504.7 240 529.3 270 523.5C300 517.7 330 481.3 360 456.2C390 431 420 417 450 426.5C480 436 510 469 540 473.7C570 478.3 600 454.7 630 457.7C660 460.7 690 490.3 720 504.3C750 518.3 780 516.7 810 497.2C840 477.7 870 440.3 885 421.7L900 403L900 601L885 601C870 601 840 601 810 601C780 601 750 601 720 601C690 601 660 601 630 601C600 601 570 601 540 601C510 601 480 601 450 601C420 601 390 601 360 601C330 601 300 601 270 601C240 601 210 601 180 601C150 601 120 601 90 601C60 601 30 601 15 601L0 601Z" fill="#bdeab4" stroke-linecap="round" stroke-linejoin="miter"></path></svg>