<svg width="139" height="139" viewBox="0 0 139 139" fill="none" xmlns="http://www.w3.org/2000/svg">
<rect x="6.5" y="6.5" width="126" height="126" rx="13.5" fill="white" stroke="#DC6C2F" stroke-width="13"/>
<path d="M69.8039 111.686C69.8039 111.686 99.5462 81.7022 99.5462 58.9536C99.5462 50.5624 96.4127 42.5149 90.8349 36.5814C85.2571 30.6479 77.692 27.3145 69.8039 27.3145C61.9157 27.3145 54.3506 30.6479 48.7729 36.5814C43.1951 42.5149 40.0615 50.5624 40.0615 58.9536C40.0615 81.7022 69.8039 111.686 69.8039 111.686ZM69.8039 74.7732C65.8598 74.7732 62.0773 73.1065 59.2884 70.1398C56.4995 67.173 54.9327 63.1493 54.9327 58.9536C54.9327 54.758 56.4995 50.7343 59.2884 47.7675C62.0773 44.8008 65.8598 43.134 69.8039 43.134C73.748 43.134 77.5305 44.8008 80.3194 47.7675C83.1083 50.7343 84.6751 54.758 84.6751 58.9536C84.6751 63.1493 83.1083 67.173 80.3194 70.1398C77.5305 73.1065 73.748 74.7732 69.8039 74.7732Z" fill="#DC6C2F"/>
</svg>
