<svg id="visual" viewBox="0 0 900 300" width="900" height="300" xmlns="http://www.w3.org/2000/svg" xmlns:xlink="http://www.w3.org/1999/xlink" version="1.1"><rect x="0" y="0" width="900" height="300" fill="#001220"></rect><path d="M0 116L21.5 117.2C43 118.3 86 120.7 128.8 121.8C171.7 123 214.3 123 257.2 121.3C300 119.7 343 116.3 385.8 115.5C428.7 114.7 471.3 116.3 514.2 113.7C557 111 600 104 642.8 101C685.7 98 728.3 99 771.2 97.5C814 96 857 92 878.5 90L900 88L900 0L878.5 0C857 0 814 0 771.2 0C728.3 0 685.7 0 642.8 0C600 0 557 0 514.2 0C471.3 0 428.7 0 385.8 0C343 0 300 0 257.2 0C214.3 0 171.7 0 128.8 0C86 0 43 0 21.5 0L0 0Z" fill="#82542f"></path><path d="M0 100L21.5 97.2C43 94.3 86 88.7 128.8 88.5C171.7 88.3 214.3 93.7 257.2 90.2C300 86.7 343 74.3 385.8 73.5C428.7 72.7 471.3 83.3 514.2 90C557 96.7 600 99.3 642.8 99.3C685.7 99.3 728.3 96.7 771.2 89.8C814 83 857 72 878.5 66.5L900 61L900 0L878.5 0C857 0 814 0 771.2 0C728.3 0 685.7 0 642.8 0C600 0 557 0 514.2 0C471.3 0 428.7 0 385.8 0C343 0 300 0 257.2 0C214.3 0 171.7 0 128.8 0C86 0 43 0 21.5 0L0 0Z" fill="#8d6038"></path><path d="M0 52L21.5 52.5C43 53 86 54 128.8 56.2C171.7 58.3 214.3 61.7 257.2 60.2C300 58.7 343 52.3 385.8 54.8C428.7 57.3 471.3 68.7 514.2 72.2C557 75.7 600 71.3 642.8 71.2C685.7 71 728.3 75 771.2 71.2C814 67.3 857 55.7 878.5 49.8L900 44L900 0L878.5 0C857 0 814 0 771.2 0C728.3 0 685.7 0 642.8 0C600 0 557 0 514.2 0C471.3 0 428.7 0 385.8 0C343 0 300 0 257.2 0C214.3 0 171.7 0 128.8 0C86 0 43 0 21.5 0L0 0Z" fill="#996c42"></path><path d="M0 36L21.5 37.2C43 38.3 86 40.7 128.8 43.2C171.7 45.7 214.3 48.3 257.2 50.2C300 52 343 53 385.8 50.5C428.7 48 471.3 42 514.2 40.5C557 39 600 42 642.8 41.5C685.7 41 728.3 37 771.2 34.2C814 31.3 857 29.7 878.5 28.8L900 28L900 0L878.5 0C857 0 814 0 771.2 0C728.3 0 685.7 0 642.8 0C600 0 557 0 514.2 0C471.3 0 428.7 0 385.8 0C343 0 300 0 257.2 0C214.3 0 171.7 0 128.8 0C86 0 43 0 21.5 0L0 0Z" fill="#a5784c"></path><path d="M0 32L21.5 32.5C43 33 86 34 128.8 31.2C171.7 28.3 214.3 21.7 257.2 19.3C300 17 343 19 385.8 20.5C428.7 22 471.3 23 514.2 23.8C557 24.7 600 25.3 642.8 27.2C685.7 29 728.3 32 771.2 31.8C814 31.7 857 28.3 878.5 26.7L900 25L900 0L878.5 0C857 0 814 0 771.2 0C728.3 0 685.7 0 642.8 0C600 0 557 0 514.2 0C471.3 0 428.7 0 385.8 0C343 0 300 0 257.2 0C214.3 0 171.7 0 128.8 0C86 0 43 0 21.5 0L0 0Z" fill="#b18456"></path></svg>