<svg id="visual" viewBox="0 0 900 300" width="900" height="300" xmlns="http://www.w3.org/2000/svg" xmlns:xlink="http://www.w3.org/1999/xlink" version="1.1"><rect x="0" y="0" width="900" height="300" fill="#f9f9f9"></rect><defs><linearGradient id="grad1_0" x1="66.7%" y1="0%" x2="100%" y2="100%"><stop offset="-10%" stop-color="#f9f9f9" stop-opacity="1"></stop><stop offset="110%" stop-color="#f9f9f9" stop-opacity="1"></stop></linearGradient></defs><defs><linearGradient id="grad2_0" x1="0%" y1="0%" x2="33.3%" y2="100%"><stop offset="-10%" stop-color="#f9f9f9" stop-opacity="1"></stop><stop offset="110%" stop-color="#f9f9f9" stop-opacity="1"></stop></linearGradient></defs><g transform="translate(900, 0)"><path d="M0 270C-33.5 261.2 -67.1 252.4 -99.5 240.2C-131.9 228 -163.3 212.5 -189.5 189.5C-215.7 166.5 -236.9 136.1 -249.4 103.3C-262 70.5 -266 35.3 -270 0L0 0Z" fill="#eea538"></path></g><g transform="translate(0, 300)"><path d="M0 -270C31.8 -260 63.6 -249.9 99.1 -239.3C134.6 -228.7 173.8 -217.5 190.9 -190.9C208 -164.4 203 -122.4 212.5 -88C222 -53.6 246 -26.8 270 0L0 0Z" fill="#eea538"></path></g></svg>